<svg width="1011" height="959" viewBox="0 0 1011 959" fill="none" xmlns="http://www.w3.org/2000/svg">
<mask id="path-1-inside-1_130_680" fill="white">
<path fill-rule="evenodd" clip-rule="evenodd" d="M516.607 3.71287C509.661 -1.23762 500.339 -1.23762 493.393 3.71287L140.225 255.404C134.782 259.283 132.15 264.775 131.828 270.316C131.174 272.293 130.82 274.406 130.82 276.602V582.823C130.82 593.869 139.775 602.823 150.82 602.823H859.649C870.695 602.823 879.649 593.869 879.649 582.823V276.602C879.649 273.775 879.062 271.084 878.004 268.645C877.291 263.685 874.67 258.892 869.775 255.404L516.607 3.71287Z"/>
</mask>
<path fill-rule="evenodd" clip-rule="evenodd" d="M516.607 3.71287C509.661 -1.23762 500.339 -1.23762 493.393 3.71287L140.225 255.404C134.782 259.283 132.15 264.775 131.828 270.316C131.174 272.293 130.82 274.406 130.82 276.602V582.823C130.82 593.869 139.775 602.823 150.82 602.823H859.649C870.695 602.823 879.649 593.869 879.649 582.823V276.602C879.649 273.775 879.062 271.084 878.004 268.645C877.291 263.685 874.67 258.892 869.775 255.404L516.607 3.71287Z" fill="#EAEAEC"/>
<path d="M493.393 3.71287L492.812 2.89851V2.89851L493.393 3.71287ZM516.607 3.71287L517.188 2.89851V2.89851L516.607 3.71287ZM140.225 255.404L139.645 254.589H139.645L140.225 255.404ZM131.828 270.316L132.778 270.63L132.819 270.505L132.827 270.374L131.828 270.316ZM878.004 268.645L877.014 268.787L877.033 268.92L877.086 269.043L878.004 268.645ZM869.775 255.404L870.355 254.589L869.775 255.404ZM493.973 4.52722C500.572 -0.175743 509.428 -0.175741 516.027 4.52723L517.188 2.89851C509.894 -2.2995 500.106 -2.2995 492.812 2.89851L493.973 4.52722ZM140.806 256.218L493.973 4.52722L492.812 2.89851L139.645 254.589L140.806 256.218ZM132.827 270.374C133.132 265.122 135.621 259.913 140.806 256.218L139.645 254.589C133.944 258.652 131.169 264.428 130.83 270.258L132.827 270.374ZM131.82 276.602C131.82 274.514 132.157 272.507 132.778 270.63L130.879 270.002C130.192 272.079 129.82 274.298 129.82 276.602H131.82ZM131.82 582.823V276.602H129.82V582.823H131.82ZM150.82 601.823C140.327 601.823 131.82 593.316 131.82 582.823H129.82C129.82 594.421 139.222 603.823 150.82 603.823V601.823ZM859.649 601.823H150.82V603.823H859.649V601.823ZM878.649 582.823C878.649 593.316 870.143 601.823 859.649 601.823V603.823C871.247 603.823 880.649 594.421 880.649 582.823H878.649ZM878.649 276.602V582.823H880.649V276.602H878.649ZM877.086 269.043C878.091 271.359 878.649 273.914 878.649 276.602H880.649C880.649 273.635 880.033 270.809 878.921 268.247L877.086 269.043ZM869.194 256.218C873.86 259.543 876.339 264.09 877.014 268.787L878.994 268.503C878.243 263.28 875.479 258.241 870.355 254.589L869.194 256.218ZM516.027 4.52723L869.194 256.218L870.355 254.589L517.188 2.89851L516.027 4.52723Z" fill="black" fill-opacity="0.2" mask="url(#path-1-inside-1_130_680)"/>
<g filter="url(#filter0_d_130_680)">
<rect x="175" y="51" width="660" height="765" rx="20" fill="#F3F4F6"/>
</g>
<path d="M516.591 645.285C504.08 637.45 504.076 619.227 516.583 611.388L849.426 402.765C862.745 394.417 880.045 403.989 880.048 419.707L880.136 836.812C880.14 852.53 862.844 862.109 849.522 853.767L516.591 645.285Z" fill="#EAEAEC"/>
<path d="M516.856 644.861C504.658 637.223 504.654 619.455 516.849 611.811L849.692 403.188C862.677 395.049 879.545 404.382 879.548 419.707L879.636 836.812C879.64 852.137 862.776 861.476 849.787 853.343L516.856 644.861Z" stroke="black" stroke-opacity="0.1"/>
<path d="M493.766 645.207C506.273 637.368 506.269 619.144 493.758 611.31L160.818 402.814C147.496 394.471 130.2 404.05 130.205 419.768L130.314 836.872C130.318 852.591 147.619 862.163 160.937 853.816L493.766 645.207Z" fill="#EAEAEC"/>
<path d="M493.501 644.783C505.695 637.14 505.69 619.372 493.492 611.733L160.553 403.238C147.564 395.104 130.701 404.442 130.705 419.768L130.814 836.872C130.818 852.198 147.686 861.531 160.671 853.392L493.501 644.783Z" stroke="black" stroke-opacity="0.1"/>
<path d="M493.373 570.747C500.328 565.778 509.672 565.778 516.627 570.747L869.923 823.167C885.753 834.477 877.752 859.44 858.296 859.44H151.704C132.248 859.44 124.247 834.477 140.077 823.167L493.373 570.747Z" fill="#EAEAEC"/>
<path d="M493.664 571.154C500.445 566.309 509.555 566.309 516.336 571.154L869.632 823.574C885.067 834.602 877.265 858.94 858.296 858.94H151.704C132.735 858.94 124.933 834.602 140.368 823.574L493.664 571.154Z" stroke="black" stroke-opacity="0.1"/>
<defs>
<filter id="filter0_d_130_680" x="169" y="45" width="680" height="785" filterUnits="userSpaceOnUse" color-interpolation-filters="sRGB">
<feFlood flood-opacity="0" result="BackgroundImageFix"/>
<feColorMatrix in="SourceAlpha" type="matrix" values="0 0 0 0 0 0 0 0 0 0 0 0 0 0 0 0 0 0 127 0" result="hardAlpha"/>
<feOffset dx="4" dy="4"/>
<feGaussianBlur stdDeviation="5"/>
<feComposite in2="hardAlpha" operator="out"/>
<feColorMatrix type="matrix" values="0 0 0 0 0 0 0 0 0 0 0 0 0 0 0 0 0 0 0.25 0"/>
<feBlend mode="normal" in2="BackgroundImageFix" result="effect1_dropShadow_130_680"/>
<feBlend mode="normal" in="SourceGraphic" in2="effect1_dropShadow_130_680" result="shape"/>
</filter>
</defs>
</svg>
