<svg width="74" height="27" viewBox="0 0 74 27" fill="none" xmlns="http://www.w3.org/2000/svg">
<path d="M0.988 26V0.799998H6.82V21.248H19.456V26H0.988ZM34.4607 26.432C32.4687 26.432 30.6327 26.12 28.9527 25.496C27.2967 24.848 25.8447 23.936 24.5967 22.76C23.3727 21.584 22.4127 20.204 21.7167 18.62C21.0447 17.036 20.7087 15.296 20.7087 13.4C20.7087 11.504 21.0447 9.764 21.7167 8.18C22.4127 6.596 23.3847 5.216 24.6327 4.04C25.8807 2.864 27.3447 1.964 29.0247 1.34C30.7047 0.691999 32.5527 0.368 34.5687 0.368C36.8007 0.368 38.8047 0.739999 40.5807 1.484C42.3807 2.228 43.8927 3.308 45.1167 4.724L41.3727 8.18C40.4607 7.22 39.4647 6.512 38.3847 6.056C37.3047 5.576 36.1287 5.336 34.8567 5.336C33.6327 5.336 32.5167 5.528 31.5087 5.912C30.5007 6.296 29.6247 6.848 28.8807 7.568C28.1607 8.288 27.5967 9.14 27.1887 10.124C26.8047 11.108 26.6127 12.2 26.6127 13.4C26.6127 14.576 26.8047 15.656 27.1887 16.64C27.5967 17.624 28.1607 18.488 28.8807 19.232C29.6247 19.952 30.4887 20.504 31.4727 20.888C32.4807 21.272 33.5847 21.464 34.7847 21.464C35.9367 21.464 37.0527 21.284 38.1327 20.924C39.2367 20.54 40.3047 19.904 41.3367 19.016L44.6487 23.228C43.2807 24.26 41.6847 25.052 39.8607 25.604C38.0607 26.156 36.2607 26.432 34.4607 26.432ZM39.3207 22.472V13.004H44.6487V23.228L39.3207 22.472ZM50.0661 26V0.799998H54.8901L69.7581 18.944H67.4181V0.799998H73.1781V26H68.3901L53.4861 7.856H55.8261V26H50.0661Z" fill="black"/>
</svg>
